<?xml version="1.0" encoding="utf-8"?>
<svg viewBox="0 0 621.73 621.73" xmlns="http://www.w3.org/2000/svg">
  <path fill="#F44336" d="M466,412.7c-27,6.1 -51.8,0.2 -72.9,-17.7 -12.9,-10.9 -18.9,-25.4 -15.2,-42.8a10.2,10.2 0,0 0,0.2 -2.5c-8.4,-3.1 -16,-5.1 -22.9,-8.7 -12.5,-6.4 -24.6,-13.4 -36.5,-20.7 -2.6,-1.6 -4.6,-2.2 -6.5,-1.9a126.7,126.7 0,0 1,18.3 -14.1c0,0.3 0,0.7 0.1,1 9.6,5.2 19.2,10.1 28.7,15.5 9,5.1 19.6,8.6 22.5,21.5 18.3,-17.5 38,-18.1 58.2,-7.8 19.9,10.1 33.9,26.4 42.1,47.1C487.8,396.6 481.6,409.1 466,412.7Z" id="path_0"/>
  <path fill="#F44336" d="M 305.395 314.763 C 298.695 303.263 292.195 292.763 286.495 281.863 C 283.195 275.363 281.295 268.163 278.695 261.263 C 276.395 259.763 271.995 259.963 267.595 259.563 C 255.595 258.463 243.495 256.163 237.895 243.963 C 225.995 218.063 214.795 191.863 203.695 165.563 C 202.095 161.763 203.095 157.063 202.795 152.763 C 203.595 152.663 204.395 152.563 205.195 152.563 C 219.795 176.663 234.295 200.863 249.095 224.963 C 250.395 227.063 253.195 228.263 255.395 229.863 C 255.195 227.163 255.795 224.163 254.695 221.963 C 243.795 201.763 232.695 181.663 221.595 161.563 C 218.995 156.863 215.095 150.663 220.495 147.363 C 225.895 144.063 229.495 150.663 232.295 155.063 C 244.195 174.363 255.895 193.763 267.895 213.063 C 269.395 215.463 272.395 216.863 274.695 218.663 C 274.395 215.863 274.895 212.563 273.595 210.163 C 261.495 188.063 249.095 166.163 236.895 144.163 C 235.495 141.663 234.195 138.963 232.895 136.363 C 233.429 135.763 233.995 135.196 234.595 134.663 C 238.095 137.063 242.495 138.663 244.995 141.963 C 262.195 164.363 279.495 186.663 295.395 209.963 C 299.195 215.563 299.595 225.063 298.295 232.163 C 296.695 240.563 291.495 248.363 288.995 254.063 C 294.395 260.663 299.695 265.963 303.595 272.063 C 310.295 282.663 316.695 293.563 322.295 304.863 C 323.695 307.663 325.195 309.363 326.895 310.263 C 319.87 312.375 312.677 313.88 305.395 314.763 Z" id="path_1"/>
  <path fill="#F44336" d="M315.8,308.8m-17.1,0a17.1,17.1 0,1 1,34.2 0a17.1,17.1 0,1 1,-34.2 0" id="path_2"/>
  <path fill="#F44336" d="M310.9,621.7c-171.4,0 -310.9,-139.4 -310.9,-310.9S139.5,0 310.9,0 621.7,139.5 621.7,310.9 482.3,621.7 310.9,621.7ZM310.9,8.5c-166.7,0 -302.4,135.6 -302.4,302.4S144.1,613.3 310.9,613.3s302.4,-135.6 302.4,-302.4S477.6,8.5 310.9,8.5Z" id="path_3"/>
  <path fill="#F44336" d="M429.8,86.2m-12.5,0a12.5,12.5 0,1 1,25 0a12.5,12.5 0,1 1,-25 0" id="path_4"/>
  <path fill="#F44336" d="M521.3,183.5m-12.5,0a12.5,12.5 0,1 1,25 0a12.5,12.5 0,1 1,-25 0" id="path_5"/>
  <path fill="#F44336" d="M522.3,433.9m-12.5,0a12.5,12.5 0,1 1,25 0a12.5,12.5 0,1 1,-25 0" id="path_6"/>
  <path fill="#F44336" d="M431,531.8m-12.5,0a12.5,12.5 0,1 1,25 0a12.5,12.5 0,1 1,-25 0" id="path_7"/>
  <path fill="#F44336" d="M567.6,304L507.7,304a7.1,7.1 0,1 1,0 -14.1h59.9a7.1,7.1 0,0 1,0 14.1Z" id="path_8"/>
  <path fill="#F44336" d="M176.1,86.6m-12.5,0a12.5,12.5 0,1 1,25 0a12.5,12.5 0,1 1,-25 0" id="path_9"/>
  <path fill="#F44336" d="M95.2,184.5m-12.5,0a12.5,12.5 0,1 1,25 0a12.5,12.5 0,1 1,-25 0" id="path_10"/>
  <path fill="#F44336" d="M96.7,433.9m-12.5,0a12.5,12.5 0,1 1,25 0a12.5,12.5 0,1 1,-25 0" id="path_11"/>
  <path fill="#F44336" d="M178.7,531.8m-12.5,0a12.5,12.5 0,1 1,25 0a12.5,12.5 0,1 1,-25 0" id="path_12"/>
  <path fill="#F44336" d="M96.1,304L36.1,304a7.1,7.1 0,1 1,0 -14.1h59.9a7.1,7.1 0,1 1,0 14.1Z" id="path_13"/>
  <path fill="#F44336" d="M302.7,110.4a7.1,7.1 0,0 1,-7.1 -7.1L295.7,43.4a7.1,7.1 0,1 1,14.1 0v59.9A7.1,7.1 0,0 1,302.7 110.4Z" id="path_14"/>
  <path fill="#F44336" d="M304.7,581.7a7.1,7.1 0,0 1,-7.1 -7.1L297.6,514.7a7.1,7.1 0,0 1,14.1 0v59.9A7.1,7.1 0,0 1,304.7 581.7Z" id="path_15"/>
</svg>